<svg height="512" viewBox="0 0 64 64" width="512" xmlns="http://www.w3.org/2000/svg"><g fill-rule="evenodd"><path d="m48 64h-32a16.0007 16.0007 0 0 1 -16-16v-32a16.0007 16.0007 0 0 1 16-16h32a16 16 0 0 1 16 16v32a16 16 0 0 1 -16 16" fill="#2d2d2d"/><path d="m30 18h18a9.0006 9.0006 0 0 0 .92-17.954c-.306-.017-.609-.046-.92-.046h-32a16.0007 16.0007 0 0 0 -16 16v32a30.0007 30.0007 0 0 1 30-30" fill="#464646"/><path d="m48 32a16 16 0 1 0 16 16v-32a16 16 0 0 1 -16 16" fill="#141414"/><path d="m26 50.3511a2 2 0 0 1 -2.7833 1.8408 22.0207 22.0207 0 1 1 17.56-.0152 1.9841 1.9841 0 0 1 -2.761-1.8256c-.0157-2.3623-.0157-5.3511-.0157-5.3511a6 6 0 0 0 -1.7574-4.2426q-.1874-.1875-.3892-.3564a.2265.2265 0 0 1 .1451-.4005l.0015-.0005a10 10 0 0 0 10-10 9.9559 9.9559 0 0 0 -2.0111-6.0157 9.6556 9.6556 0 0 0 -.0959-4.6083l-.17-.6348a1 1 0 0 0 -1.2247-.7071l-.6348.17a9.6538 9.6538 0 0 0 -3.8 2.0089 10.0367 10.0367 0 0 0 -2.0635-.213h-8a10.0367 10.0367 0 0 0 -2.063.2131 9.6538 9.6538 0 0 0 -3.8-2.0089l-.6348-.17a1 1 0 0 0 -1.2247.7071l-.17.6348a9.6556 9.6556 0 0 0 -.0959 4.6083 9.9559 9.9559 0 0 0 -2.0116 6.0156 10 10 0 0 0 10 10h.0015a.227.227 0 0 1 .1449.4008q-.2013.1692-.389.3566a6 6 0 0 0 -1.6735 3.2426h-1.0839a6 6 0 0 1 -4.8-2.4l-.0006-.0008a3.998 3.998 0 0 0 -3.1984-1.5992h-.001a1 1 0 0 0 0 2 1.766 1.766 0 0 1 1.5143.8574l.1552.2586a8 8 0 0 0 6.8605 3.884h.47z" fill="#fff"/></g></svg>