<svg id="Avatar-flat" height="512" viewBox="0 0 64 64" width="512" xmlns="http://www.w3.org/2000/svg"><path d="m45.59 21.35s-.1.733-.285 1.667a26.893 26.893 0 0 1 -.7 2.844c-.295-.22-3.385-.736-4.795 1.49-1.436-.535-2.576-1.941-2.882-5.93-.04-.556-.071-1.165-.081-1.826a57.882 57.882 0 0 1 8.743 1.755z" fill="#ffb640"/><path d="m44.619 25.668a2.737 2.737 0 0 0 -1.01-.45 3.509 3.509 0 0 0 -2.75.74 4.6 4.6 0 0 0 -.95 1.13 3.309 3.309 0 0 1 -1.83-1.58c-.63-1.12-1.04-2.91-1.08-5.81-.32-.04-.65-.09-.98-.13s-.69-.09-1.04-.13c-6.13-.74-13.458-1.168-18.038.162a6.229 6.229 0 0 0 -.592.258 22.992 22.992 0 0 0 .35 3.48 31.874 31.874 0 0 1 .35 3.44 32.092 32.092 0 0 0 .69 6.01 13.848 13.848 0 0 0 2.68 5.77 8.882 8.882 0 0 0 7.018 2.828c.175 0 .626-.024.936-.064.318 1.251 1.482 7.235 1.582 7.245 2.73.26 7.221-.445 7.816-3-1.729-5.064-1.412-7.2-1.412-7.2a12.854 12.854 0 0 0 3.98-5.58 3.133 3.133 0 0 0 1.32.71c2.01.45 3.71-1.44 4.17-3.45.36-1.629.01-3.489-1.21-4.379z" fill="#fccaae"/><path d="m37.335 42.363a13.905 13.905 0 0 1 -.976-3.995 22.811 22.811 0 0 1 -4.665 2.15 18.38 18.38 0 0 1 -3.321.8 28.862 28.862 0 0 1 .577 3.582 16.19 16.19 0 0 1 -.294 4.209c.28.08 1.291.209 1.391.219 2.73.26 7.243-2.116 8.833-4.206 0 0-1.268-2.128-1.545-2.759z" fill="#ffab8d"/><path d="m46.72 52.44c-.76 4.56-2.84 7-5.45 8.38a48.624 48.624 0 0 1 -12.4 1.49c-.68 0-2.5-.09-2.66-.1a42.506 42.506 0 0 1 1.47-8.65c.27-.82 1.03-3.45 2.44-4.89a4.1 4.1 0 0 0 .5.02c2.76 0 6.79-1.91 8.26-3.89a3.464 3.464 0 0 0 1.16.79 24.738 24.738 0 0 1 5.92 3.43 7.1 7.1 0 0 1 .76 3.42z" fill="#edeae8"/><path d="m50.2 54.777c.37 1.08-.99 2.383-2.89 3.623a22.474 22.474 0 0 1 -6.04 2.42c-.61-2.32 1.73-9.36 4.69-11.8a12.014 12.014 0 0 1 4.24 5.757z" fill="#2f5893"/><path d="m37.59 42.47c1.12-.373 1.29 2.33 1.29 2.33-1.56 2.1-6.01 4.13-8.76 3.87 0-1.76.26-2.94 1.16-3.43 1.12-.61 5.64-2.547 6.31-2.77z" fill="#2f5893"/><path d="m37 18.05c-.65-.09-1.33-.18-2.02-.26-.23-.03-.47-.06-.7-.08-6.25-.71-13.57-.98-17.93.5a3.015 3.015 0 0 0 0 1.648c.01.59.09 1.534.139 1.9 4.54-1.48 12.172-1.125 18.492-.365.69.08 2.09.27 2.12.28 0 0 6.28 1 8.17 1.42.2-.97.3-1.749.3-1.749.024-.212.138-1.058.2-1.7-1.595-.421-5.141-1.084-8.771-1.594z" fill="#f7a081"/><path d="m45.829 19.71c-.06.64-.239 1.8-.559 3.38-1.88-.42-8.17-1.42-8.17-1.42s-.13-2.12-.12-3.62h.02c.03 0 .05.01.08.01 3.6.51 7.169 1.23 8.749 1.65z" fill="#e89823"/><path d="m30.21 3.786c-.17-2.89 3.25-3.018 3 .15-.86-.107-2.65-.15-3-.15z" fill="#2f5893"/><path d="m30.12 48.67c-1.41 1.44-2.17 4.07-2.44 4.89a42.506 42.506 0 0 0 -1.47 8.65c-.17-.01-.34-.02-.5-.04a26.252 26.252 0 0 1 -9.26-2.25c-1.64-1-1.45-3.73-.39-5.94a13.3 13.3 0 0 1 2.67-3.07 33.235 33.235 0 0 1 8.17-4.07c.3 1.1 1.4 1.56 2.61 1.75.2.03.61.07.61.08z" fill="#edeae8"/><path d="m29.83 48.63c-1.32-.15-2.6-.6-2.93-1.79 0 0-.31-2.49.58-2.55a1.593 1.593 0 0 1 1.47.61 1.292 1.292 0 0 1 .28.48c.24.76.6 3.25.6 3.25z" fill="#2f5893"/><path d="m18.73 50.91c-1.69 2.3-2.34 7.15-2.28 9.01a9.612 9.612 0 0 1 -1.34-.77c-1.23-.85-1.26-2.04-.59-3.37a13.709 13.709 0 0 1 4.21-4.87z" fill="#2f5893"/><path d="m45.568 21.481a50.88 50.88 0 0 0 -8.568-1.831c-.65-.09-1.33-.18-2.02-.26 0 0-4.3-.39-6.86-.61-2.34-.2-9.79-.12-11.77 1.08-.81-.73-1.15-3.56-.96-5.24.39-3.49 2.87-10.87 14.82-10.98.35 0 2.14.04 3 .14 6.59.72 10.13 4.15 11.41 6.8a13.687 13.687 0 0 1 1.2 4.54 21.767 21.767 0 0 1 -.252 6.361z" fill="#32709b"/><path d="m25.5 34.853c-1.11 0-1.917-.343-2.166-.926a.5.5 0 0 1 .919-.394c.049.114.491.322 1.326.319 1.08-.019 2.047-.424 2.248-.943a.5.5 0 0 1 .932.362c-.439 1.133-1.978 1.56-3.162 1.581z" fill="#f77261"/><path d="m34.689 23.79a.5.5 0 0 1 -.29-.093c-.806-.576-4.549-1.047-5.728-.2a.5.5 0 0 1 -.583-.812c1.572-1.13 5.82-.567 6.892.2a.5.5 0 0 1 -.291.907z" fill="#f99f1c"/><path d="m16.7 23.79a.5.5 0 0 1 -.333-.873c1.126-1.007 5-1.156 6.369-.244a.5.5 0 0 1 -.552.833c-.962-.638-4.378-.534-5.15.157a.5.5 0 0 1 -.334.127z" fill="#f99f1c"/><path d="m25.621 30.8a1.978 1.978 0 0 1 -1.35-.545 1.4 1.4 0 0 1 -.508-1.387.5.5 0 0 1 .958.287.769.769 0 0 0 .334.453.913.913 0 0 0 .884.132.5.5 0 1 1 .362.932 1.872 1.872 0 0 1 -.68.128z" fill="#f77261"/><path d="m29.91 51.58a.958.958 0 1 0 .74 1.12.951.951 0 0 0 -.74-1.12z" fill="#2f5893"/><path d="m28.51 58.58a.958.958 0 1 0 .74 1.12.951.951 0 0 0 -.74-1.12z" fill="#2f5893"/><path d="m33.04 25.48v.66a.935.935 0 0 1 -.93.93h-.24a.928.928 0 0 1 -.93-.93v-.66a.922.922 0 0 1 .93-.93h.24a.928.928 0 0 1 .93.93z" fill="#d35f5f"/><path d="m21.63 25.48v.66a.928.928 0 0 1 -.93.93h-.23a.937.937 0 0 1 -.94-.93v-.66a.93.93 0 0 1 .94-.93h.23a.922.922 0 0 1 .93.93z" fill="#d35f5f"/><path d="m33.2 25.22a.5.5 0 0 1 -.374-.169 2.876 2.876 0 0 0 -2.815-.108.5.5 0 0 1 -.562-.826c1.11-.757 3.347-.609 4.126.272a.5.5 0 0 1 -.375.831z" fill="#7f3c3c"/><path d="m21.8 25.22a.5.5 0 0 1 -.375-.169 2.871 2.871 0 0 0 -2.814-.108.5.5 0 1 1 -.562-.826c1.11-.757 3.348-.609 4.125.272a.5.5 0 0 1 -.374.831z" fill="#7f3c3c"/><path d="m41.628 29.659a.449.449 0 0 0 .1.011.5.5 0 0 0 .489-.4 1.171 1.171 0 0 1 1.233-.8.5.5 0 1 0 .136-.99 2.173 2.173 0 0 0 -2.347 1.583.5.5 0 0 0 .389.596z" fill="#f77261"/><path d="m30.62 48.69a.518.518 0 0 1 -.14.33 12.131 12.131 0 0 0 -2.25 4.46l-.07.24a41.791 41.791 0 0 0 -1.45 8.49v.03c-.17-.01-.84-.05-1-.07a42.871 42.871 0 0 1 1.5-8.77l.07-.22a13.977 13.977 0 0 1 2.23-4.59c.08-.09.16-.18.25-.27a.5.5 0 0 1 .71-.01.476.476 0 0 1 .15.38z" fill="#2f5893"/><path d="m42.38 32.84a1.38 1.38 0 1 0 -1.38-1.38 1.381 1.381 0 0 0 1.38 1.38zm0-1.76a.38.38 0 1 1 -.38.38.376.376 0 0 1 .38-.38z" fill="#562b48"/><path d="m30.25 15.25c4.889 1.643 4.73 4.14 4.73 4.14-6.251-.554-14.111-1.072-18.631.468-.46.67-5.179-.028-6.349-2.688-.57-1.3 1.92-2.13 5.39-2.55 4.98-.6 11.979-.338 14.86.63z" fill="#2f5893"/></svg>