<svg id="Capa_1" enable-background="new 0 0 512 512" height="512" viewBox="0 0 512 512" width="512" xmlns="http://www.w3.org/2000/svg"><path d="m47.873 512h416.255c4.143 0 7.5-3.358 7.5-7.5v-66.794c0-4.142-3.357-7.5-7.5-7.5s-7.5 3.358-7.5 7.5v59.294h-57.768v-87.128c0-4.142-3.357-7.5-7.5-7.5s-7.5 3.358-7.5 7.5v87.128h-59.057l46.409-65.239c2.122-2.983 1.78-7.063-.808-9.651l-20.185-20.184 31.337-31.336c3.196-3.194 2.858-8.474-.716-11.237l-40.276-31.138c1.945-2.531 2.079-6.035.298-8.716l-.642-.967h63.411c29.222 0 52.996 23.774 52.996 52.997v31.178c0 4.142 3.357 7.5 7.5 7.5s7.5-3.358 7.5-7.5v-31.178c0-37.494-30.503-67.997-67.996-67.997h-73.375l-.85-1.28c-3.414-5.14-10.32-6.835-15.728-3.854l-57.678 31.794-57.678-31.795c-5.406-2.979-12.313-1.286-15.728 3.854l-.85 1.28h-73.374c-37.494 0-67.997 30.503-67.997 67.997v132.972c0 4.142 3.357 7.5 7.5 7.5zm157.734-15-48.919-68.768 21.004-21.003c2.927-2.927 2.928-7.678 0-10.606l-30.616-30.615 34.067-26.338 4.465 5.263 9.291 41.867c.902 4.061 4.922 6.592 8.947 5.697 4.044-.897 6.595-4.903 5.697-8.947l-3.126-14.088 10.177 11.996c2.945 3.472 8.289 3.542 11.321.134l.596-.67.795 6.24c.314 2.463 1.428 4.656 3.06 6.331l-6.445 63.861-8.676-39.093c-.897-4.043-4.902-6.594-8.947-5.697-4.044.897-6.595 4.903-5.697 8.947l16.755 75.489zm78.478-115.407c3.055 3.433 8.398 3.313 11.321-.134l10.177-11.996-19.505 87.892-6.444-63.859c1.632-1.676 2.746-3.869 3.059-6.332l.796-6.24zm-15.837.269h-24.495l-2.014-15.8 14.261-16.024c5.014 5.633 11.442 12.855 14.262 16.024zm-31.25 115.138 10.105-100.138h17.795l10.105 100.138zm97.311-100.377c-2.927 2.927-2.928 7.678 0 10.606l21.004 21.003-48.919 68.768h-13.749l33.748-152.067 4.465-5.263 34.067 26.338zm-15.846-83.735c1.864 2.806 4.918 7.403 6.783 10.211-45.219 53.301-6.613 7.795-35.694 42.074-19.875-22.33-1.273-1.43-21.703-24.385zm-74.311 27.9c-11.072 12.44-10.363 11.643-21.703 24.384-10.631-12.531-29.064-34.259-35.694-42.074 1.865-2.808 4.919-7.405 6.783-10.211zm-188.779 30.74c0-29.222 23.774-52.997 52.997-52.997h63.411l-.642.967c-1.781 2.681-1.646 6.185.298 8.716l-40.276 31.138c-3.574 2.763-3.911 8.044-.716 11.237l31.337 31.336-20.185 20.184c-2.588 2.588-2.93 6.667-.808 9.651l46.409 65.24h-59.057v-87.128c0-4.142-3.357-7.5-7.5-7.5s-7.5 3.358-7.5 7.5v87.128h-57.768z"/><path d="m403.68 118.354v-6.319c0-4.142-3.357-7.5-7.5-7.5h-36.611c-2.213-11.306-11.649-59.52-12.599-64.376-4.554-23.27-25.07-40.159-48.781-40.159h-15.142c-6.664 0-12.938 2.748-17.211 7.537-5.65 6.331-14.033 6.318-19.672 0-4.275-4.79-10.547-7.537-17.21-7.537h-15.143c-23.711 0-44.226 16.889-48.78 40.159-.945 4.83-10.388 53.081-12.599 64.376h-36.611c-4.143 0-7.5 3.358-7.5 7.5v6.319c0 13.622 10.216 24.974 23.763 26.404l123.13 13c1.117.119 1.458.012 6.882-.56v30.348c0 3.36-2.734 6.094-6.095 6.094-4.143 0-7.5 3.358-7.5 7.5s3.357 7.5 7.5 7.5c11.632 0 21.095-9.463 21.095-21.094v-31.932l102.821-10.856c13.547-1.43 23.763-12.782 23.763-26.404zm-235.964-13.819 1.957-10h12.854c4.143 0 7.5-3.358 7.5-7.5s-3.357-7.5-7.5-7.5h-9.918l7.142-36.495c3.18-16.248 17.504-28.04 34.06-28.04h15.143c2.394 0 4.588.92 6.02 2.525 11.62 13.017 30.432 13.02 42.056-.001 1.431-1.604 3.625-2.524 6.019-2.524h15.142c16.556 0 30.881 11.792 34.061 28.04l7.142 36.495h-121.864c-4.143 0-7.5 3.358-7.5 7.5s3.357 7.5 7.5 7.5h124.8l1.957 10zm88.284 38.223-122.343-12.917c-5.496-.581-9.732-4.916-10.277-10.306h265.24c-.545 5.39-4.781 9.725-10.278 10.306-3.806.402-115.11 12.153-122.342 12.917z"/><path d="m256 248.162c-12.689 0-21.655-2.202-27.53-4.476-4.801-1.858-6.321-7.901-2.994-11.829 2.045-2.414 5.396-3.316 8.346-2.174 4.16 1.609 11.327 3.479 22.178 3.479 10.87 0 18.06-1.891 22.245-3.526 2.982-1.165 6.377-.234 8.419 2.231l.013.016c3.261 3.937 1.717 9.91-3.047 11.765-5.873 2.287-14.868 4.514-27.63 4.514z"/></svg>