<svg viewBox="-14 1 511 511.9996" xmlns="http://www.w3.org/2000/svg"><path d="m139.785156 359.492188c-28.328125-1.953126-51.914062 20.449218-51.914062 48.359374 0 9.675782-7.585938 15.03125-16.398438 17.566407-7.707031 2.214843-8.820312 12.601562-1.863281 16.585937 23.503906 13.464844 47.757813 14.324219 66.738281 14.324219 27.910156 0 50.308594-23.585937 48.355469-51.914063-1.648437-23.90625-21.011719-43.273437-44.917969-44.921874zm0 0" fill="#7f9ae6"/><path d="m172.304688 512c-2.820313 0-5.683594-.578125-8.421876-1.800781-10.316406-4.59375-15.027343-16.582031-10.675781-26.945313 2.996094-10.023437 1.523438-56.726562.046875-65.511718-2.332031-11.09375 4.691406-22.023438 15.78125-24.488282 11.175782-2.480468 22.242188 4.5625 24.726563 15.734375 1.652343 7.433594 2.488281 29.207031 2.625 41.1875.425781 37.027344-3.476563 45.789063-5.144531 49.53125-3.433594 7.714844-11.007813 12.292969-18.9375 12.292969zm-18.917969-29.160156c0 .003906-.003907.007812-.003907.011718 0-.003906.003907-.007812.003907-.011718zm-.109375-64.996094c.007812.050781.019531.09375.027344.136719-.007813-.046875-.019532-.089844-.027344-.136719zm0 0" fill="#f9f1da"/><path d="m154.324219 475.859375c-.269531 3.203125-.636719 5.78125-1.117188 7.394531-4.351562 10.359375.359375 22.347656 10.675781 26.945313 2.738282 1.222656 5.601563 1.800781 8.421876 1.800781 7.929687 0 15.503906-4.578125 18.9375-12.292969 1.019531-2.289062 2.875-6.464843 4.0625-17.816406zm0 0" fill="#495059"/><path d="m260.707031 511.996094c-11.445312 0-20.722656-9.28125-20.722656-20.722656 0-13.394532-5.59375-41.054688-8.9375-57.578126-1.457031-7.210937-2.609375-12.90625-3.253906-16.914062-1.820313-11.300781 5.863281-21.933594 17.160156-23.753906 11.308594-1.824219 21.933594 5.863281 23.753906 17.160156.515625 3.195312 1.648438 8.800781 2.964844 15.292969 4.117187 20.363281 9.757813 48.253906 9.757813 65.792969 0 11.441406-9.277344 20.722656-20.722657 20.722656zm0 0" fill="#f9f1da"/><path d="m161.996094 40.707031c-59.1875 0-97.6875 40.640625-97.6875 90.777344 0 3.503906.222656 6.957031.644531 10.351563.808594 6.492187-1.785156 12.890624-6.605469 17.3125-14.167968 12.988281-22.804687 30.210937-22.804687 49.109374 0 22.597657-9.636719 43.792969-28.0625 50.953126-7.652344 2.972656-9.390625 13.097656-3.324219 18.625 39.101562 35.617187 183.085938 66.226562 227.367188-26.195313 0 0 28.15625-36.117187 28.15625-120.15625 0-50.132813-30.765626-90.777344-97.683594-90.777344zm0 0" fill="#7f9ae6"/><path d="m269.554688 111.738281c-11.761719 20.375-3.25 31.851563 10.757812 39.941407 14.007812 8.085937 28.207031 9.71875 39.96875-10.652344 11.761719-20.375 15.859375-53.695313 1.851562-61.785156-14.007812-8.085938-40.816406 12.125-52.578124 32.496093zm0 0" fill="#f0e4c0"/><path d="m362.492188 403.277344c-.964844 0-1.933594-.066406-2.914063-.207032-34.269531-4.820312-63.105469-24.4375-79.117187-53.820312-5.476563-10.046875-1.769532-22.632812 8.28125-28.109375 10.046874-5.476563 22.636718-1.769531 28.109374 8.277344 9.671876 17.75 27.351563 29.636719 48.5 32.613281 11.332032 1.597656 19.226563 12.078125 17.632813 23.410156-1.457031 10.351563-10.332031 17.835938-20.492187 17.835938zm0 0" fill="#f5ebcd"/><path d="m382.984375 385.441406c1.59375-11.332031-6.300781-21.8125-17.632813-23.410156-3.601562-.507812-7.089843-1.292969-10.46875-2.300781l-13.230468 39.324219c5.769531 1.796874 11.757812 3.148437 17.925781 4.019531.980469.136719 1.949219.203125 2.914063.203125 10.160156 0 19.035156-7.484375 20.492187-17.835938zm0 0" fill="#495059"/><path d="m320.398438 347.28125c0 51.101562-32.921876 92.527344-106.160157 92.527344s-106.164062-41.425782-106.164062-92.527344 47.53125-92.527344 106.164062-92.527344c58.632813 0 106.160157 41.425782 106.160157 92.527344zm0 0" fill="#f9f1da"/><path d="m214.238281 439.808594c21.488281 0 39.476563-3.589844 54.210938-9.917969-142.863281-8.558594-113.257813-143.300781-61.628907-174.90625-55.167968 3.316406-98.746093 43.371094-98.746093 92.296875 0 51.101562 32.925781 92.527344 106.164062 92.527344zm0 0" fill="#f0e4c0"/><path d="m409.269531 159.378906c-40.238281-40.242187-121.140625-63.898437-212.820312-63.898437-60.019531 0-108.671875 48.65625-108.671875 108.671875 0 60.019531 48.652344 108.675781 108.671875 108.675781 66.3125 0 165.414062 11.605469 212.820312-35.800781 32.488281-32.488282 32.488281-85.160156 0-117.648438zm0 0" fill="#f9f1da"/><path d="m137.152344 113.078125c-29.726563 19.390625-49.375 52.9375-49.375 91.074219 0 60.019531 48.652344 108.675781 108.671875 108.675781 44.707031 0 104.316406 5.269531 152.941406-5.816406-239.761719 16.851562-243.175781-126.917969-212.238281-193.933594zm0 0" fill="#f5ebcd"/><path d="m217.332031 202.929688c0-10.035157-14.023437-18.171876-31.316406-18.171876-17.296875 0-31.316406 8.136719-31.316406 18.171876 0 10.039062 14.019531 18.175781 31.316406 18.175781 17.292969 0 31.316406-8.136719 31.316406-18.175781zm0 0" fill="#f0e4c0"/><path d="m387.074219 202.929688c0-10.035157-14.023438-18.171876-31.316407-18.171876-17.296874 0-31.316406 8.136719-31.316406 18.171876 0 10.039062 14.019532 18.175781 31.316406 18.175781 17.292969 0 31.316407-8.136719 31.316407-18.175781zm0 0" fill="#f0e4c0"/><g fill="#495059"><path d="m204.265625 182.566406c-4.144531 0-7.5-3.355468-7.5-7.5v-8.621094c0-4.140624 3.355469-7.5 7.5-7.5s7.5 3.359376 7.5 7.5v8.621094c0 4.144532-3.355469 7.5-7.5 7.5zm0 0"/><path d="m337.507812 182.566406c-4.144531 0-7.5-3.355468-7.5-7.5v-8.621094c0-4.140624 3.355469-7.5 7.5-7.5 4.140626 0 7.5 3.359376 7.5 7.5v8.621094c0 4.144532-3.359374 7.5-7.5 7.5zm0 0"/><path d="m204.265625 195.285156c-4.578125 0-14.144531-.601562-20.9375-2.847656-3.933594-1.304688-6.066406-5.542969-4.765625-9.476562 1.300781-3.933594 5.539062-6.066407 9.476562-4.765626 4.101563 1.355469 11.421876 2.089844 16.226563 2.089844 4.808594 0 12.128906-.734375 16.226563-2.089844 3.941406-1.300781 8.179687.832032 9.480468 4.761719 1.300782 3.933594-.832031 8.175781-4.765625 9.476563-6.796875 2.253906-16.359375 2.851562-20.941406 2.851562zm0 0"/><path d="m218.820312 163.433594c-.78125 0-1.574218-.121094-2.359374-.382813-3.050782-1.007812-8.558594-1.554687-12.195313-1.554687-3.632813 0-9.144531.546875-12.195313 1.554687-3.9375 1.304688-8.175781-.832031-9.476562-4.765625-1.300781-3.929687.832031-8.171875 4.765625-9.472656 6.796875-2.25 15.894531-2.316406 16.90625-2.316406 1.015625 0 10.113281.066406 16.910156 2.316406 3.929688 1.300781 6.0625 5.542969 4.761719 9.472656-1.042969 3.152344-3.972656 5.148438-7.117188 5.148438zm0 0"/><path d="m337.507812 195.285156c-4.582031 0-14.144531-.601562-20.941406-2.847656-3.933594-1.304688-6.066406-5.542969-4.765625-9.476562 1.300781-3.933594 5.542969-6.066407 9.476563-4.765626 4.101562 1.355469 11.421875 2.089844 16.226562 2.089844 4.808594 0 12.128906-.734375 16.226563-2.089844 3.9375-1.300781 8.179687.832032 9.480469 4.761719 1.300781 3.933594-.832032 8.175781-4.765626 9.476563-6.796874 2.253906-16.359374 2.851562-20.9375 2.851562zm0 0"/><path d="m352.058594 163.433594c-.78125 0-1.574219-.121094-2.355469-.382813-3.050781-1.007812-8.5625-1.554687-12.195313-1.554687-3.636718 0-9.148437.546875-12.195312 1.554687-3.933594 1.304688-8.175781-.832031-9.476562-4.765625-1.304688-3.929687.832031-8.171875 4.765624-9.472656 6.792969-2.25 15.890626-2.316406 16.90625-2.316406 1.015626 0 10.109376.066406 16.90625 2.316406 3.933594 1.300781 6.066407 5.542969 4.765626 9.472656-1.042969 3.152344-3.972657 5.148438-7.121094 5.148438zm0 0"/></g><path d="m275.003906 140.140625c-21.550781 5.328125-44.179687-2.90625-57.261718-20.839844-4.332032-5.941406-4.675782-13.902343-.875-20.195312l54.601562-90.347657c4.480469-7.414062 13.582031-10.625 21.722656-7.660156 8.136719 2.960938 13.046875 11.269532 11.714844 19.828125l-16.25 104.308594c-1.132812 7.265625-6.515625 13.140625-13.652344 14.90625zm0 0" fill="#f8e47c"/><path d="m293.191406 1.09375c-8.140625-2.960938-17.242187.25-21.722656 7.660156l-23.21875 38.421875c13.457031 1.617188 31.238281.71875 53.734375-7.496093l2.921875-18.753907c1.332031-8.558593-3.578125-16.867187-11.714844-19.832031zm0 0" fill="#e88c98"/><path d="m288.65625 125.234375 5.378906-34.53125c-36.511718 16.570313-62.148437 14.53125-78.1875 10.375-2.660156 5.925781-1.996094 12.886719 1.898438 18.222656 13.078125 17.933594 35.710937 26.167969 57.257812 20.839844 7.136719-1.765625 12.519532-7.640625 13.652344-14.90625zm0 0" fill="#72cda2"/><path d="m158.273438 111.738281c11.761718 20.375 3.25 31.851563-10.757813 39.941407-14.007813 8.085937-28.203125 9.71875-39.964844-10.652344-11.765625-20.375-15.863281-53.695313-1.855469-61.785156 14.007813-8.085938 40.816407 12.125 52.578126 32.496093zm0 0" fill="#f0e4c0"/><path d="m107.761719 429.164062c-.492188 0-.980469-.015624-1.480469-.050781-11.414062-.804687-20.015625-10.710937-19.210938-22.128906 1.792969-25.4375 12.527344-50.902344 31.902344-75.6875 7.050782-9.015625 20.074219-10.613281 29.089844-3.5625s10.609375 20.070313 3.558594 29.089844c-14.199219 18.160156-22.007813 36.019531-23.210938 53.074219-.769531 10.917968-9.867187 19.265624-20.648437 19.265624zm0 0" fill="#f9f1da"/><path d="m87.070312 406.984375c-.804687 11.417969 7.796876 21.324219 19.214844 22.128906.496094.035157.988282.050781 1.476563.050781 10.78125 0 19.878906-8.347656 20.648437-19.265624.21875-3.054688.652344-6.136719 1.289063-9.238282l-40.839844-7.085937c-.867187 4.46875-1.472656 8.941406-1.789063 13.410156zm0 0" fill="#495059"/><path d="m362.765625 276.121094h-35.128906c-4.144531 0-7.5-3.359375-7.5-7.5s3.355469-7.5 7.5-7.5h35.128906c4.140625 0 7.5 3.359375 7.5 7.5 0 4.144531-3.359375 7.5-7.5 7.5zm0 0" fill="#495059"/><path d="m410.210938 412.546875h-24.761719c-9.539063 0-17.296875-7.757813-17.296875-17.292969v-25.210937c0-9.539063 7.757812-17.296875 17.296875-17.296875h24.761719c4.140624 0 7.5 3.359375 7.5 7.5 0 4.144531-3.359376 7.5-7.5 7.5h-24.761719c-1.265625 0-2.296875 1.03125-2.296875 2.296875v25.210937c0 1.265625 1.03125 2.292969 2.296875 2.292969h24.761719c4.140624 0 7.5 3.359375 7.5 7.5 0 4.144531-3.359376 7.5-7.5 7.5zm0 0" fill="#72cda2"/><path d="m472.214844 427.035156h-51.417969c-5.847656 0-10.585937-4.742187-10.585937-10.585937v-67.035157c0-2.957031 2.394531-5.355468 5.351562-5.355468h61.886719c2.957031 0 5.355469 2.398437 5.355469 5.355468v67.035157c-.003907 5.847656-4.742188 10.585937-10.589844 10.585937zm0 0" fill="#8a82d1"/><path d="m430.824219 329.648438c-3.652344 0-6.855469-2.679688-7.40625-6.402344-1.628907-10.980469.84375-19.554688 2.828125-26.445313 1.5625-5.417969 2.796875-9.695312 1.71875-13.6875-1.082032-3.996093 1.285156-8.113281 5.28125-9.195312 4-1.082031 8.117187 1.285156 9.199218 5.28125 2.167969 8.035156.160157 15.011719-1.785156 21.757812-1.828125 6.339844-3.554687 12.332031-2.40625 20.089844.609375 4.097656-2.222656 7.910156-6.320312 8.519531-.371094.054688-.742188.082032-1.109375.082032zm0 0" fill="#d4d8db"/><path d="m463.65625 329.648438c-3.65625 0-6.855469-2.679688-7.410156-6.402344-1.625-10.980469.84375-19.554688 2.828125-26.441406 1.566406-5.421876 2.796875-9.699219 1.71875-13.691407-1.082031-3.996093 1.285156-8.113281 5.28125-9.195312 3.996093-1.078125 8.117187 1.285156 9.199219 5.28125 2.171874 8.035156.160156 15.011719-1.785157 21.757812-1.828125 6.34375-3.554687 12.332031-2.402343 20.089844.605468 4.097656-2.222657 7.910156-6.320313 8.519531-.375.054688-.742187.082032-1.109375.082032zm0 0" fill="#d4d8db"/><path d="m239.984375 491.273438c0 11.441406 9.277344 20.722656 20.722656 20.722656 11.441407 0 20.722657-9.28125 20.722657-20.722656 0-3.847657-.285157-8.210938-.75-12.867188l-41.253907 3.816406c.351563 3.417969.558594 6.496094.558594 9.050782zm0 0" fill="#495059"/></svg>