<?xml version="1.0" encoding="iso-8859-1"?>
<!-- Generator: Adobe Illustrator 19.0.0, SVG Export Plug-In . SVG Version: 6.00 Build 0)  -->
<svg version="1.1" id="Layer_1" xmlns="http://www.w3.org/2000/svg" xmlns:xlink="http://www.w3.org/1999/xlink" x="0px" y="0px"
	 viewBox="0 0 512 512" style="enable-background:new 0 0 512 512;" xml:space="preserve">
<g>
	<path style="fill:#554141;" d="M112.804,475.702H68.989c-4.328,0-7.837-3.509-7.837-7.837s3.509-7.837,7.837-7.837h43.815
		c4.328,0,7.837,3.509,7.837,7.837S117.132,475.702,112.804,475.702z"/>
	<path style="fill:#554141;" d="M287.657,475.702h-43.816c-4.328,0-7.837-3.509-7.837-7.837s3.509-7.837,7.837-7.837h43.816
		c4.329,0,7.837,3.509,7.837,7.837S291.985,475.702,287.657,475.702z"/>
</g>
<g>
	<path style="fill:#D2873C;" d="M197.614,475.702h-27.817c-4.328,0-7.837-3.509-7.837-7.837s3.509-7.837,7.837-7.837h27.817
		c4.328,0,7.837,3.509,7.837,7.837S201.942,475.702,197.614,475.702z"/>
	<path style="fill:#D2873C;" d="M351.824,475.702h-27.817c-4.329,0-7.837-3.509-7.837-7.837s3.508-7.837,7.837-7.837h27.817
		c4.329,0,7.837,3.509,7.837,7.837S356.153,475.702,351.824,475.702z"/>
</g>
<g>
	<path style="fill:#554141;" d="M442.435,475.702h-27.817c-4.329,0-7.837-3.509-7.837-7.837s3.508-7.837,7.837-7.837h27.817
		c4.329,0,7.837,3.509,7.837,7.837S446.763,475.702,442.435,475.702z"/>
	<path style="fill:#554141;" d="M153.315,509.803H109.5c-4.328,0-7.837-3.509-7.837-7.837c0-4.328,3.509-7.837,7.837-7.837h43.815
		c4.328,0,7.837,3.509,7.837,7.837C161.151,506.294,157.643,509.803,153.315,509.803z"/>
	<path style="fill:#554141;" d="M327.314,509.803H283.5c-4.329,0-7.837-3.509-7.837-7.837c0-4.328,3.508-7.837,7.837-7.837h43.815
		c4.329,0,7.837,3.509,7.837,7.837C335.151,506.294,331.643,509.803,327.314,509.803z"/>
</g>
<g>
	<path style="fill:#965930;" d="M237.271,509.803h-27.817c-4.328,0-7.837-3.509-7.837-7.837c0-4.328,3.509-7.837,7.837-7.837h27.817
		c4.328,0,7.837,3.509,7.837,7.837C245.108,506.294,241.599,509.803,237.271,509.803z"/>
	<path style="fill:#965930;" d="M402.5,509.803h-27.817c-4.329,0-7.837-3.509-7.837-7.837c0-4.328,3.508-7.837,7.837-7.837H402.5
		c4.329,0,7.837,3.509,7.837,7.837C410.337,506.294,406.829,509.803,402.5,509.803z"/>
</g>
<path style="fill:#A0C663;" d="M386.247,243.769c-1.51-2.623-5.226-4.768-8.254-4.768h-74.44c-3.029,0-6.744,2.145-8.254,4.768
	l-56.156,97.464c-1.51,2.623-0.267,4.768,2.762,4.768h197.74c3.028,0,4.273-2.145,2.761-4.768L386.247,243.769z"/>
<path style="fill:#648C3A;" d="M363.241,167.571c-1.511-2.622-5.227-4.768-8.255-4.768h-28.429c-3.028,0-6.743,2.145-8.253,4.768
	l-49.943,86.68c-1.51,2.623-0.268,4.768,2.762,4.768h139.302c3.028,0,4.271-2.145,2.76-4.768L363.241,167.571z"/>
<path style="opacity:0.1;enable-background:new    ;" d="M290.431,254.25l49.943-86.68c1.51-2.623,5.224-4.768,8.253-4.768h-22.07
	c-3.028,0-6.743,2.145-8.253,4.768l-49.943,86.68c-1.51,2.623-0.268,4.768,2.762,4.768h22.069
	C290.164,259.018,288.922,256.872,290.431,254.25z"/>
<path style="fill:#A0C663;" d="M293.607,183.055c-3.028,0-4.272-2.145-2.761-4.768l47.179-81.881c1.51-2.622,3.981-2.622,5.492,0
	l47.177,81.881c1.511,2.623,0.27,4.768-2.761,4.768H293.607z"/>
<path style="opacity:0.1;enable-background:new    ;" d="M312.917,178.287l38.891-67.495l-8.289-14.386
	c-1.51-2.622-3.982-2.622-5.492,0l-47.179,81.881c-1.511,2.623-0.269,4.768,2.761,4.768h22.07
	C312.649,183.055,311.405,180.91,312.917,178.287z"/>
<rect x="403.477" y="361.848" style="fill:#D2873C;" width="32.758" height="69.172"/>
<path style="fill:#A0C663;" d="M380.694,308.37c1.51-2.622,5.224-4.768,8.255-4.768h56.92c3.028,0,6.743,2.145,8.253,4.768
	l43.517,75.526c1.51,2.623,0.268,4.768-2.762,4.768H339.938c-3.028,0-4.271-2.145-2.761-4.768L380.694,308.37z"/>
<path style="opacity:0.1;enable-background:new    ;" d="M358.959,383.895l43.516-75.526c1.51-2.622,5.224-4.768,8.254-4.768
	h-21.782c-3.03,0-6.744,2.145-8.255,4.768l-43.514,75.526c-1.51,2.623-0.269,4.768,2.761,4.768h21.782
	C358.69,388.663,357.449,386.518,358.959,383.895z"/>
<path style="fill:#648C3A;" d="M398.983,247.796c1.512-2.622,5.226-4.768,8.254-4.768h20.344c3.028,0,6.743,2.145,8.253,4.768
	l38.577,66.953c1.51,2.623,0.268,4.768-2.762,4.768H363.167c-3.028,0-4.272-2.145-2.762-4.768L398.983,247.796z"/>
<path style="opacity:0.1;enable-background:new    ;" d="M382.188,314.749l38.576-66.953c1.396-2.419,4.659-4.411,7.537-4.707
	c-0.242-0.025-0.486-0.061-0.72-0.061h-20.344c-3.028,0-6.742,2.145-8.254,4.768l-38.577,66.953
	c-1.51,2.623-0.267,4.768,2.762,4.768h21.782C381.92,319.516,380.677,317.371,382.188,314.749z"/>
<path style="fill:#A0C663;" d="M453.774,259.128c3.028,0,4.271-2.145,2.76-4.767l-36.378-63.139c-1.51-2.622-3.983-2.622-5.493,0
	l-36.379,63.138c-1.51,2.622-0.269,4.768,2.761,4.768H453.774L453.774,259.128z"/>
<path style="opacity:0.1;enable-background:new    ;" d="M400.064,254.36l28.236-49.003l-8.145-14.135
	c-1.51-2.622-3.983-2.622-5.493,0l-36.379,63.138c-1.51,2.622-0.269,4.768,2.761,4.768h21.782
	C399.796,259.128,398.554,256.982,400.064,254.36z"/>
<rect x="86.141" y="361.848" style="fill:#D2873C;" width="32.754" height="69.172"/>
<path style="fill:#A0C663;" d="M64.217,299.779c1.51-2.622,5.224-4.768,8.254-4.768h60.099c3.029,0,6.744,2.145,8.255,4.768
	l45.807,79.509c1.511,2.623,0.269,4.768-2.76,4.768H21.168c-3.028,0-4.272-2.145-2.762-4.768L64.217,299.779z"/>
<path style="opacity:0.1;enable-background:new    ;" d="M39.758,379.288l45.81-79.509c1.51-2.622,5.226-4.768,8.254-4.768H72.471
	c-3.028,0-6.744,2.145-8.254,4.768l-45.81,79.509c-1.51,2.623-0.267,4.768,2.762,4.768h21.352
	C39.491,384.056,38.248,381.911,39.758,379.288z"/>
<path style="fill:#648C3A;" d="M83.363,236.37c1.51-2.623,5.224-4.768,8.254-4.768h21.81c3.029,0,6.743,2.145,8.254,4.768
	l40.638,70.533c1.512,2.623,0.27,4.768-2.76,4.768H45.483c-3.028,0-4.272-2.145-2.762-4.768L83.363,236.37z"/>
<path style="opacity:0.1;enable-background:new    ;" d="M64.074,306.903l40.641-70.533c1.51-2.623,5.226-4.768,8.254-4.768H91.617
	c-3.029,0-6.744,2.145-8.254,4.768l-40.641,70.533c-1.51,2.623-0.266,4.768,2.762,4.768h21.352
	C63.808,311.671,62.564,309.525,64.074,306.903z"/>
<path style="fill:#A0C663;" d="M140.847,248.455c3.029,0,4.272-2.145,2.762-4.768l-38.339-66.54
	c-1.51-2.623-3.982-2.623-5.492-0.001l-38.341,66.541c-1.51,2.622-0.267,4.767,2.762,4.767h76.65V248.455z"/>
<path style="opacity:0.1;enable-background:new    ;" d="M82.787,243.688l30.411-52.779l-7.93-13.762
	c-1.51-2.623-3.982-2.623-5.492-0.001l-38.341,66.541c-1.51,2.622-0.267,4.767,2.762,4.767h21.352
	C82.52,248.455,81.277,246.31,82.787,243.688z"/>
<path style="fill:#965930;" d="M251.817,168.973c-2.799,0-5.385-1.493-6.786-3.916l-37.003-64.047
	c-2.165-3.747-0.882-8.541,2.865-10.706c3.747-2.165,8.541-0.883,10.706,2.865l30.208,52.286l30.218-52.452
	c2.162-3.749,6.954-5.038,10.703-2.878c3.75,2.161,5.039,6.952,2.879,10.703l-37,64.222c-1.399,2.426-3.985,3.923-6.787,3.925
	C251.82,168.973,251.818,168.973,251.817,168.973z"/>
<polygon style="fill:#E86436;" points="89.12,431.027 251.817,148.65 414.514,431.027 "/>
<polygon style="opacity:0.1;enable-background:new    ;" points="251.817,148.65 89.12,431.027 122.076,431.027 268.296,177.249 "/>
<path style="fill:#FBD33B;" d="M344.33,431.027c-42.052,0-90.706-139.824-90.706-139.824c-0.995-2.857-2.621-2.857-3.615,0
	c0,0-48.655,139.824-90.709,139.824c-0.462,0-0.462,0-0.462,0c-0.505-0.045,1.561-0.08,4.589-0.08h176.776
	c3.028,0,5.096,0.036,4.592,0.08C344.797,431.027,344.797,431.027,344.33,431.027z"/>
<path style="fill:#A82341;" d="M277.391,349.047v81.9h62.814c1.08,0,2.035,0.004,2.799,0.013
	C319.914,429.37,295.027,386.799,277.391,349.047z"/>
<g style="opacity:0.1;">
	<path d="M193.936,430.947c27.324-2.224,57.121-61.56,74.412-102.195c-9.087-21.358-14.724-37.548-14.724-37.548
		c-0.995-2.857-2.621-2.857-3.615,0c0,0-47.638,136.883-89.383,139.756c0.763-0.008,1.719-0.013,2.801-0.013H193.936z"/>
	<path d="M158.84,431.027c0,0,0,0,0.462,0c0.441,0,0.885-0.038,1.327-0.068C159.256,430.974,158.516,430.999,158.84,431.027z"/>
	<path d="M344.33,431.027c0.467,0,0.467,0,0.467,0c0.323-0.028-0.419-0.054-1.794-0.068
		C343.448,430.99,343.889,431.027,344.33,431.027z"/>
	<path d="M340.205,430.947c1.08,0,2.035,0.004,2.799,0.013c-0.083-0.006-0.163-0.006-0.246-0.013H340.205z"/>
</g>
<path style="fill:#FBD33B;" d="M114.844,100.416c-27.032,0-49.023-22.032-49.023-49.112c0-26.955,21.891-48.985,48.798-49.107
	c0.006,0,0.01,0,0.017,0c1.204,0,2.326,0.611,2.978,1.623c0.654,1.017,0.744,2.296,0.237,3.394
	c-2.565,5.557-3.866,11.488-3.866,17.627c0,23.181,18.815,42.04,41.942,42.04l0.21-0.005c1.208,0,2.332,0.614,2.983,1.63
	c0.65,1.016,0.74,2.291,0.233,3.387C151.352,89.219,133.882,100.416,114.844,100.416z"/>
<path style="opacity:0.1;enable-background:new    ;" d="M135.721,90.701c-27.033,0-49.025-22.032-49.025-49.112
	c0-15.541,7.285-29.434,18.605-38.446C82.836,7.614,65.82,27.539,65.82,51.303c0,27.081,21.992,49.112,49.023,49.112
	c11.247,0,21.945-3.909,30.468-10.68C142.186,90.365,138.977,90.701,135.721,90.701z"/>
<path style="fill:#D6D5D6;" d="M344.33,431.027c0.467,0,0.467,0,0.467,0c0.323-0.028-0.419-0.054-1.794-0.068
	C343.448,430.99,343.889,431.027,344.33,431.027z"/>
<path style="fill:#554141;" d="M504.163,438.864H7.837c-4.328,0-7.837-3.509-7.837-7.837s3.509-7.837,7.837-7.837h496.327
	c4.329,0,7.837,3.509,7.837,7.837S508.492,438.864,504.163,438.864z"/>
<g>
</g>
<g>
</g>
<g>
</g>
<g>
</g>
<g>
</g>
<g>
</g>
<g>
</g>
<g>
</g>
<g>
</g>
<g>
</g>
<g>
</g>
<g>
</g>
<g>
</g>
<g>
</g>
<g>
</g>
</svg>
