<?xml version="1.0" encoding="iso-8859-1"?>
<!-- Generator: Adobe Illustrator 19.0.0, SVG Export Plug-In . SVG Version: 6.00 Build 0)  -->
<svg version="1.1" id="Capa_1" xmlns="http://www.w3.org/2000/svg" xmlns:xlink="http://www.w3.org/1999/xlink" x="0px" y="0px"
	 viewBox="0 0 511.998 511.998" style="enable-background:new 0 0 511.998 511.998;" xml:space="preserve">
<rect x="175.665" y="266.16" style="fill:#AE8164;" width="151.605" height="171.125"/>
<polygon style="fill:#A2785D;" points="175.665,290.408 322.533,437.276 327.271,437.276 327.271,266.151 175.665,266.151 "/>
<path style="fill:#AE8164;" d="M355.507,152.447c0,0,6.917,0,6.917-30.7c0-47.377-35.153-93.901-110.388-93.901
	S143.07,75.791,143.07,123.168c0,25.868,4.548,29.753,4.548,29.753c-14.782-1.137-22.267,15.824-17.908,36.48
	c2.672,15.426,12.981,28.445,27.384,34.585v18.951c0,21.32,28.426,53.82,59.316,69.359c8.632,4.254,18.136,6.462,27.763,6.443
	h15.634c8.679-0.18,17.217-2.255,25.015-6.064c32.406-15.066,61.874-48.703,61.874-70.591v-18.951
	c14.166-6.263,24.191-19.292,26.626-34.585C377.68,168.271,370.478,149.415,355.507,152.447z"/>
<path style="fill:#A47C61;" d="M355.507,152.447c0,0,6.917,0,6.917-30.7c0-47.377-35.153-93.901-110.388-93.901
	c-4.993-0.19-10.006,0-14.971,0.569l-6.159,25.583c-21.263,52.92-31.79,109.544-30.984,166.576
	c-0.19,28.559,1.999,57.079,6.538,85.278c3.127,1.895,6.348,3.79,9.475,5.401c8.632,4.254,18.136,6.462,27.763,6.443h15.634
	c8.604,0.152,17.131-1.563,25.015-5.022c32.406-15.066,61.684-48.703,61.684-70.591v-18.951
	c14.241-6.083,24.437-18.951,27.099-34.206C377.68,168.271,370.478,149.415,355.507,152.447z"/>
<g>
	<path style="fill:#333333;" d="M244.03,328.214c-10.963,0-21.973-2.568-31.818-7.41c-31.231-15.71-64.603-50.731-64.603-77.859
		V229.86c-14.374-8.168-24.38-22.295-27.242-38.839c-3.278-15.502-0.644-30.245,7.107-39.086c2.246-2.558,4.861-4.567,7.732-5.998
		c-1.08-5.913-1.62-13.474-1.62-22.76c0-52.162,36.622-104.797,118.442-104.797c82.35,0,119.863,53.583,119.863,103.376
		c0,4.984,0,15.094-2.075,23.916c1.706,1.004,3.307,2.255,4.776,3.743c8.518,8.623,11.579,24.39,7.978,41.132
		c-2.539,16.004-12.261,30.094-26.408,38.375v13.171c0,25.498-31.477,62.509-67.351,79.185c-8.926,4.359-18.676,6.718-28.815,6.936
		h-15.833C244.125,328.214,244.077,328.214,244.03,328.214z M146.225,162.339c-1.848,0-3.26,0.654-4.501,2.075
		c-2.824,3.231-5.249,11.19-2.748,23.025c2.189,12.65,10.328,22.93,21.831,27.829c3.496,1.488,5.761,4.918,5.761,8.717v18.951
		c0,15.577,23.632,45.567,54.095,60.889c7.192,3.544,15.293,5.429,23.385,5.429c0.038,0,0.066,0,0.104,0h15.653
		c7.163-0.161,14.251-1.867,20.855-5.098c31.401-14.602,56.568-45.87,56.568-62.082v-18.951c0-3.752,2.208-7.144,5.647-8.67
		c11.266-4.984,19.15-15.227,21.102-27.412c2.511-11.749,0.445-21.007-2.843-24.333c-0.739-0.749-1.516-1.203-2.862-1.118
		c-0.862,0.199-1.781,0.313-2.757,0.313c-4.87,0-8.935-3.686-9.428-8.528c-0.37-3.667,1.412-7.107,4.387-8.964
		c0.768-1.876,2.492-7.722,2.492-22.674c0-42.023-31.202-84.425-100.912-84.425c-68.725,0-99.491,43.113-99.491,85.847
		c0,17.046,2.047,22.779,2.549,23.925c2.066,2.653,2.606,6.254,1.289,9.447c-1.573,3.8-5.41,6.178-9.485,5.827
		C146.661,162.349,146.443,162.339,146.225,162.339z M155.189,147.321L155.189,147.321L155.189,147.321z M153.825,145.767
		L153.825,145.767L153.825,145.767z M153.806,145.757C153.815,145.757,153.815,145.757,153.806,145.757
		C153.815,145.757,153.815,145.757,153.806,145.757z M153.787,145.738l0.009,0.009C153.796,145.748,153.796,145.738,153.787,145.738
		z M153.768,145.719c0.009,0,0.009,0.009,0.019,0.009C153.777,145.729,153.777,145.719,153.768,145.719z"/>
	<path style="fill:#333333;" d="M367.92,151.594c3.97-15.464,5.031-31.524,3.127-47.377c-5.306-44.818-10.044-52.967-52.588-82.341
		c-39.721-29.307-93.948-29.156-133.508,0.379c-42.639,29.374-47.377,37.901-52.588,82.814c-1.876,15.852-0.777,31.922,3.222,47.377
		l16.392,15.54c1.99,4.832,2.653,5.969,5.875,12.413c0.474,1.042,1.706,1.507,2.748,1.042c0.758-0.37,1.241-1.147,1.232-1.99V133.97
		l6.727-13.36c1.412-2.757,2.132-5.808,2.085-8.907V98.532c-0.114-8.509,5.23-16.137,13.265-18.951
		c21.594-8.035,44.345-12.517,67.37-13.265c23.129,0.54,46.012,4.861,67.749,12.792c20.182,7.201,9.475,29.279,15.35,40.839
		l6.728,13.36v45.482c0,1.137,0.862,2.085,1.99,2.179c0.786,0.066,1.544-0.294,1.99-0.948c3.222-6.443,3.885-7.58,5.969-12.507
		L367.92,151.594z"/>
	<path style="fill:#333333;" d="M329.261,238.104c-1.393,3.894-4.027,7.22-7.486,9.475l-23.12,15.35l-9.475-9.475v18.951
		c0,5.23-4.245,9.475-9.475,9.475h-5.685c-2.094,0-3.79-1.696-3.79-3.79l0,0l0,0c0-3.136-2.549-5.685-5.685-5.685h-26.72
		c-3.136,0-5.685,2.549-5.685,5.685c0,2.094-1.696,3.79-3.79,3.79l0,0h-5.496c-5.23,0-9.475-4.245-9.475-9.475v-18.951l-9.475,9.475
		l-22.741-15.066c-3.458-2.255-6.093-5.581-7.486-9.475l-12.318-36.859c-0.37-1.26-1.677-1.98-2.937-1.611l0,0
		c-1.023,0.332-1.715,1.289-1.706,2.369v51.735c14.241,24.465,34.367,44.989,58.558,59.695c8.225,4.368,17.406,6.642,26.72,6.633
		h18.951c9.314,0.009,18.496-2.265,26.72-6.633c24.134-14.715,44.202-35.239,58.368-59.695v-52.02
		c0.057-1.308-0.957-2.416-2.265-2.473c-1.09-0.047-2.075,0.663-2.378,1.715L329.261,238.104z"/>
	<path style="fill:#333333;" d="M308.131,272.689H289.18v-14.317c-0.009-4.264-2.918-8.026-7.059-9.125
		c-10.3-2.966-20.732-4.662-31.231-5.098c-9.712,0.426-20.154,2.132-30.236,5.041c-4.359,1.156-7.268,4.918-7.277,9.201v14.298
		h-18.951v-14.317c0.028-12.886,8.736-24.162,21.177-27.441c11.342-3.278,23.281-5.211,35.286-5.704
		c12.792,0.493,24.721,2.426,36.272,5.761c12.233,3.231,20.94,14.507,20.969,27.374V272.689z"/>
	<circle style="fill:#333333;" cx="296.4" cy="182.484" r="9.475"/>
	<circle style="fill:#333333;" cx="206.365" cy="182.484" r="9.475"/>
	<path style="fill:#333333;" d="M242.116,179.906l-8.585-11.323c10.489-7.94,25.11-7.931,35.589,0l-8.585,11.323
		C255.107,175.794,247.536,175.794,242.116,179.906z"/>
	<path style="fill:#333333;" d="M210.298,212.426c-0.028,0-0.047,0-0.076,0h-19.775c-17.814,0-32.311-14.497-32.311-32.311v-6.254
		c0.038-5.647,2.255-10.887,6.235-14.81c3.951-3.894,9.163-6.036,14.706-6.036c0.474,0.028,0.853,0.028,1.27,0.095h43.738
		c5.183,0.047,10.593,2.047,14.45,5.818c7.201,7.088,8.405,18.354,2.862,26.787l-10.451,15.672
		C226.32,208.304,218.607,212.426,210.298,212.426z M178.404,167.257c-1.526,0.152-2.947,0.815-4.055,1.905
		c-1.279,1.26-1.99,2.947-1.999,4.738v6.112c0,10.072,8.12,18.193,18.098,18.193h19.803c0.009,0,0.019,0,0.028,0
		c3.572,0,6.87-1.762,8.84-4.709l10.423-15.625c1.8-2.748,1.402-6.472-0.966-8.803c-1.175-1.156-2.776-1.762-4.387-1.753H179.37
		C179.038,167.323,178.716,167.304,178.404,167.257z"/>
	<path style="fill:#333333;" d="M292.515,212.52c-8.281,0-15.994-4.112-20.618-11.02l-10.518-15.739
		c-5.572-8.48-4.378-19.737,2.814-26.825c3.875-3.79,9.333-5.581,14.564-5.837h43.094c0.531-0.123,1.071-0.19,1.63-0.19
		c11.55,0,20.94,9.39,20.94,20.941v6.159c0,18.003-14.488,32.5-32.311,32.5h-19.519C292.563,212.52,292.534,212.52,292.515,212.52z
		 M278.558,167.323c-1.706,0-3.269,0.635-4.406,1.762c-2.369,2.331-2.757,6.045-0.929,8.831l10.48,15.691
		c1.971,2.947,5.268,4.709,8.822,4.709c0.009,0,0.019,0,0.038,0h19.538c9.987,0,18.098-8.12,18.098-18.098v-6.348
		c0-3.43-2.568-6.263-5.894-6.68c-0.426,0.085-0.843,0.142-1.213,0.142h-44.439C278.624,167.323,278.586,167.323,278.558,167.323z"
		/>
	<path style="fill:#333333;" d="M327.261,322.529c-5.24,0-9.475-4.235-9.475-9.475v-28.426c0-5.24,4.235-9.475,9.475-9.475
		s9.475,4.235,9.475,9.475v28.426C336.737,318.294,332.501,322.529,327.261,322.529z"/>
</g>
<path style="fill:#646C75;" d="M486.551,399.943c-4.444-23.072-22.637-41.038-45.766-45.197l-79.498-13.645l-23.404-45.576
	l-33.448,61.59l1.611,2.558l-54.767,76.182l-54.483-74.95l2.748-4.359L166,295.335l-23.215,45.766l-70.781,13.36
	c-22.949,4.33-40.915,22.258-45.292,45.197l-12.318,55.146l101.67,28.426c88.689,24.797,182.41,25.328,271.374,1.516l111.809-29.942
	L486.551,399.943z"/>
<g>
	<circle style="fill:#333333;" cx="282.263" cy="445.718" r="7.107"/>
	<path style="fill:#333333;" d="M14.869,462.385c-0.682,0-1.374-0.076-2.056-0.218c-5.107-1.137-8.329-6.187-7.201-11.304
		l11.844-53.441c5.174-26.607,25.915-47.206,52.797-52.266l71.065-13.36c5.107-0.985,10.091,2.416,11.058,7.561
		c0.966,5.145-2.416,10.091-7.561,11.058l-71.065,13.36c-19.197,3.61-34.007,18.335-37.74,37.513l-11.892,53.678
		C23.131,459.372,19.218,462.385,14.869,462.385z M497.059,454.805c-4.311,0-8.206-2.966-9.229-7.334l-10.518-45.482
		c-3.771-19.387-19.102-34.49-38.195-37.911l-71.842-12.337l-19.519,54.976c-0.824,2.464-2.596,4.719-4.965,6.187
		c-5.647,3.402-12.716,1.781-16.203-3.676l-30.416-47.377c-1.857-2.909-1.999-6.585-0.351-9.636l33.353-61.59
		c1.677-3.089,4.766-5.126,8.443-4.956c3.515,0.047,6.727,2.028,8.329,5.164l21.31,41.673l75.139,12.896
		c26.825,4.804,48.286,25.943,53.469,52.635l10.461,45.15c1.175,5.098-1.999,10.186-7.097,11.37
		C498.481,454.729,497.76,454.805,497.059,454.805z M329.924,400.293c-0.028,0.085-0.057,0.171-0.085,0.246L329.924,400.293z
		 M315.142,356.328l19.567,30.482l15.994-45.036l-13.445-26.285L315.142,356.328z"/>
	
		<rect x="216.163" y="349.086" transform="matrix(-0.838 0.5457 -0.5457 -0.838 631.0326 605.4517)" style="fill:#333333;" width="18.951" height="94.632"/>
	<path style="fill:#333333;" d="M251.278,503.034c-5.23,0-9.475-4.235-9.475-9.475v-53.346c0.133-10.082,3.781-19.69,10.29-27.213
		l44.364-61.789c3.042-4.264,8.954-5.24,13.228-2.17c4.254,3.051,5.23,8.973,2.17,13.228l-44.629,62.158
		c-0.199,0.265-0.398,0.521-0.606,0.758c-3.705,4.179-5.78,9.57-5.856,15.161v53.223
		C260.754,498.799,256.509,503.034,251.278,503.034z"/>
	<path style="fill:#333333;" d="M251.146,511.998c-81.952,0-163.923-16.781-240.569-50.409c-4.795-2.113-6.974-7.703-4.87-12.479
		s7.703-6.945,12.479-4.88c151.7,66.564,324.995,64.982,475.473-4.283c4.747-2.189,10.376-0.104,12.564,4.643
		s0.114,10.385-4.643,12.564C422.233,493.701,336.699,511.998,251.146,511.998z"/>
	<path style="fill:#333333;" d="M167.687,415.312c-5.297,0-9.968-3.354-11.446-8.461l-22.106-62.594
		c-0.872-2.464-0.682-5.164,0.502-7.486l23.594-45.955c1.611-3.127,4.823-5.117,8.348-5.145c0.028,0,0.057,0,0.085,0
		c3.496,0,6.699,1.914,8.348,4.993l33.353,62.243c1.62,3.032,1.478,6.709-0.379,9.599l-30.416,47.377
		c-1.393,2.246-3.648,4.027-6.273,4.918C170.075,415.141,168.862,415.312,167.687,415.312z M174.054,400.435l0.218,0.616
		C174.206,400.843,174.13,400.634,174.054,400.435z M161.661,399.602c-0.038,0.057-0.066,0.114-0.104,0.171L161.661,399.602z
		 M153.36,341.793l16.108,45.643l19.557-30.482l-22.191-41.417L153.36,341.793z"/>
	<path style="fill:#333333;" d="M175.665,322.529c-5.23,0-9.475-4.235-9.475-9.475v-28.426c0-5.24,4.245-9.475,9.475-9.475
		s9.475,4.235,9.475,9.475v28.426C185.141,318.294,180.896,322.529,175.665,322.529z"/>
	<path style="fill:#333333;" d="M270.409,263.403h-37.901c-2.615,0-4.738-2.122-4.738-4.738c0-2.615,2.122-4.738,4.738-4.738h37.901
		c2.615,0,4.738,2.122,4.738,4.738C275.147,261.281,273.024,263.403,270.409,263.403z"/>
	<path style="fill:#333333;" d="M251.335,234.788c-3.402,0-6.851-0.559-10.129-1.677l-10.129-2.757
		c-2.53-0.692-4.018-3.297-3.326-5.818c0.692-2.53,3.326-4.018,5.818-3.326l10.423,2.843c4.795,1.639,9.76,1.639,14.27,0.085
		l10.707-2.928c2.568-0.692,5.136,0.805,5.818,3.326c0.682,2.52-0.805,5.126-3.326,5.818l-10.432,2.843
		C257.978,234.257,254.68,234.788,251.335,234.788z"/>
</g>
<g>
</g>
<g>
</g>
<g>
</g>
<g>
</g>
<g>
</g>
<g>
</g>
<g>
</g>
<g>
</g>
<g>
</g>
<g>
</g>
<g>
</g>
<g>
</g>
<g>
</g>
<g>
</g>
<g>
</g>
</svg>
