<svg height="415pt" viewBox="-4 0 415 415.78667" width="415pt" xmlns="http://www.w3.org/2000/svg"><path d="m408.394531 212c.046875 62.617188-28.71875 121.773438-78 160.398438l-10.402343 7.601562c-29.738282 20.460938-64.394532 32.609375-100.398438 35.199219h-30.402344c-36-2.589844-70.660156-14.738281-100.398437-35.199219l-10.398438-7.601562c-75.007812-58.902344-99.1875-161.917969-58.230469-248.042969 40.957032-86.128907 136.125-132.386719 229.152344-111.382813 93.03125 21 159.09375 103.65625 159.078125 199.027344zm0 0" fill="#a59c9a"/><g fill="#e2e0e0"><path d="m145.191406 113.199219c0 12.59375-10.207031 22.800781-22.796875 22.800781-12.59375 0-22.800781-10.207031-22.800781-22.800781 0-12.589844 10.207031-22.800781 22.800781-22.800781 12.589844 0 22.796875 10.210937 22.796875 22.800781zm0 0"/><path d="m307.191406 108.800781c0 12.589844-10.207031 22.800781-22.796875 22.800781-12.59375 0-22.800781-10.210937-22.800781-22.800781 0-12.59375 10.207031-22.800781 22.800781-22.800781 12.589844 0 22.796875 10.207031 22.796875 22.800781zm0 0"/><path d="m321.191406 166.800781c0 12.589844-10.207031 22.800781-22.796875 22.800781-12.59375 0-22.800781-10.210937-22.800781-22.800781 0-12.59375 10.207031-22.800781 22.800781-22.800781 12.589844 0 22.796875 10.207031 22.796875 22.800781zm0 0"/><path d="m132.394531 162.800781c0 12.589844-10.210937 22.800781-22.800781 22.800781-12.59375 0-22.800781-10.210937-22.800781-22.800781 0-12.59375 10.207031-22.800781 22.800781-22.800781 12.589844 0 22.800781 10.207031 22.800781 22.800781zm0 0"/><path d="m153.191406 189.199219c0 12.59375-10.207031 22.800781-22.796875 22.800781-12.59375 0-22.800781-10.207031-22.800781-22.800781 0-12.589844 10.207031-22.800781 22.800781-22.800781 12.589844 0 22.796875 10.210937 22.796875 22.800781zm0 0"/><path d="m298.394531 185.601562c0 12.589844-10.210937 22.796876-22.800781 22.796876-12.59375 0-22.800781-10.207032-22.800781-22.796876 0-12.59375 10.207031-22.800781 22.800781-22.800781 12.589844 0 22.800781 10.207031 22.800781 22.800781zm0 0"/></g><path d="m145.191406 131.199219c0 14.800781-11.996094 26.800781-26.796875 26.800781s-26.800781-12-26.800781-26.800781 12-26.800781 26.800781-26.800781 26.796875 12 26.796875 26.800781zm0 0" fill="#f2b499"/><path d="m317.191406 131.199219c0 14.800781-11.996094 26.800781-26.796875 26.800781s-26.800781-12-26.800781-26.800781 12-26.800781 26.800781-26.800781 26.796875 12 26.796875 26.800781zm0 0" fill="#f2b499"/><path d="m181.992188 168h45.199218v114h-45.199218zm0 0" fill="#f2b499"/><path d="m315.191406 320.800781v59.199219c-66.011718 47.714844-155.183594 47.714844-221.199218 0v-59.601562c0-14.398438 12-26.796876 28.402343-30l78-14.398438 85.597657 14.800781c16.800781 3.199219 29.199218 15.597657 29.199218 30zm0 0" fill="#f2b499"/><path d="m330.394531 372.398438-10.402343 7.601562c-29.738282 20.460938-64.394532 32.609375-100.398438 35.199219h-30.402344c-36-2.589844-70.660156-14.738281-100.398437-35.199219l-10.398438-7.601562 10.398438-52c0-14.398438 12.398437-26.796876 30-30l40-7.199219 13.199219-2.398438c3.828124 14.015625 16.519531 23.773438 31.050781 23.863281 14.527343.09375 27.34375-9.496093 31.351562-23.464843l13.199219 2 42.398438 7.199219c17.601562 2.800781 30.402343 15.601562 30.402343 30zm0 0" fill="#3f4142"/><path d="m189.191406 0h30.800782c38.945312.21875 70.402343 31.855469 70.402343 70.800781v83.199219c0 47.496094-38.503906 86-86 86-47.496093 0-86-38.503906-86-86v-83.199219c0-39.101562 31.695313-70.800781 70.796875-70.800781zm0 0" fill="#f2b499"/><path d="m247.191406 284c-4.917968 20.601562-23.375 35.105469-44.558594 35.007812-21.179687-.09375-39.507812-14.761718-44.238281-35.40625l13.199219-2.402343c3.828125 14.019531 16.519531 23.773437 31.046875 23.867187 14.53125.09375 27.347656-9.5 31.351563-23.464844zm0 0" fill="#efebea"/><path d="m181.992188 279.199219 19.601562 26-10.402344 4.800781-8.796875 18.398438-12.402343-46.796876 12-10.800781s-.398438 6.800781 0 8.398438zm0 0" fill="#d3cdcb"/><path d="m227.992188 279.199219-19.597657 26 10.398438 4.800781 8.800781 18.398438 12.398438-46.796876-12-10.800781s.402343 6.800781 0 8.398438zm0 0" fill="#d3cdcb"/><path d="m246.394531 177.199219c-10-10-34-6.800781-39.203125-6l-2.796875 1.199219-2.800781-1.199219c-5.199219-.800781-29.199219-4-39.199219 6-6.050781 6.386719-9.964843 14.492187-11.203125 23.199219 0 0 11.203125-9.199219 20.800782-9.199219 9.601562 0 15.199218 2.800781 24.402343 2 2.90625.003906 5.726563-.984375 8-2.800781 2.269531 1.816406 5.089844 2.804687 8 2.800781 9.199219.800781 14.796875-2 24.398438-2 9.601562 0 20.800781 9.199219 20.800781 9.199219-1.238281-8.707032-5.152344-16.8125-11.199219-23.199219zm0 0" fill="#e2e0e0"/><path d="m206.792969 216h-2.398438c-10.753906-.3125-21.011719-4.585938-28.800781-12-.597656-.796875-.519531-1.910156.183594-2.613281.707031-.703125 1.820312-.785157 2.617187-.1875 7.089844 6.601562 16.316407 10.433593 26 10.800781 9.929688.511719 19.628907-3.109375 26.796875-10 .796875-.597656 1.914063-.519531 2.617188.1875.703125.703125.78125 1.816406.183594 2.613281-7.269532 7.121094-17.023438 11.136719-27.199219 11.199219zm0 0"/><path d="m181.992188 103.601562-1.597657-.800781c-3.289062-2.953125-7.585937-4.53125-12-4.402343-4.390625.023437-8.636719 1.578124-12 4.402343-.796875.597657-1.910156.515625-2.617187-.1875-.703125-.703125-.78125-1.816406-.183594-2.613281 4.105469-3.574219 9.355469-5.558594 14.800781-5.601562 5.605469-.21875 11.074219 1.796874 15.199219 5.601562.761719.777344.761719 2.023438 0 2.800781zm0 0" fill="#f2ebeb"/><path d="m253.191406 103.601562-1.597656-.800781c-3.285156-2.953125-7.582031-4.53125-12-4.402343-4.390625.023437-8.636719 1.578124-12 4.402343-.796875.597657-1.910156.515625-2.613281-.1875-.707031-.703125-.785157-1.816406-.1875-2.613281 4.105469-3.574219 9.355469-5.558594 14.800781-5.601562 5.609375-.21875 11.074219 1.796874 15.199219 5.601562.761719.777344.761719 2.023438 0 2.800781zm0 0" fill="#f2ebeb"/><path d="m178.792969 123.199219c0 5.523437-4.476563 10-10 10-5.523438 0-10-4.476563-10-10 0-5.523438 4.476562-10 10-10 5.523437 0 10 4.476562 10 10zm0 0"/><path d="m249.992188 123.199219c0 5.523437-4.476563 10-10 10-5.523438 0-10-4.476563-10-10 0-5.523438 4.476562-10 10-10 5.523437 0 10 4.476562 10 10zm0 0"/><path d="m175.59375 120.800781c0 1.105469-.894531 2-2 2s-2-.894531-2-2 .894531-2 2-2 2 .894531 2 2zm0 0" fill="#fff"/><path d="m247.59375 120.800781c0 1.105469-.894531 2-2 2s-2-.894531-2-2 .894531-2 2-2 2 .894531 2 2zm0 0" fill="#fff"/><path d="m133.191406 88c0 9.277344-7.519531 16.800781-16.796875 16.800781-9.28125 0-16.800781-7.523437-16.800781-16.800781s7.519531-16.800781 16.800781-16.800781c9.277344 0 16.796875 7.523437 16.796875 16.800781zm0 0" fill="#e2e0e0"/><path d="m308.394531 88c0 9.277344-7.523437 16.800781-16.800781 16.800781s-16.800781-7.523437-16.800781-16.800781 7.523437-16.800781 16.800781-16.800781 16.800781 7.523437 16.800781 16.800781zm0 0" fill="#e2e0e0"/><path d="m127.191406 100.800781-4.796875 35.199219-9.203125-36.800781s13.601563-8 14 1.601562zm0 0" fill="#e2e0e0"/><path d="m292.394531 101.601562-2 40.398438-8-42.800781s10.398438-6.800781 10 2.402343zm0 0" fill="#e2e0e0"/><path d="m164.792969 160c-22.53125 0-40.800781-18.265625-40.800781-40.800781 0-20.398438 15.199218-32.800781 40.800781-32.800781 25.601562 0 40.800781 12.402343 40.800781 32.800781 0 22.535156-18.265625 40.800781-40.800781 40.800781zm0-69.199219c-22.800781 0-36.800781 10.800781-36.800781 28.800781-1.464844 13.988282 5.175781 27.589844 17.105468 35.039063 11.929688 7.453125 27.0625 7.453125 38.992188 0 11.929687-7.449219 18.566406-21.050781 17.101562-35.039063 0-18.402343-13.597656-28.800781-36.398437-28.800781zm0 0"/><path d="m248.792969 160c-22.53125 0-40.800781-18.265625-40.800781-40.800781 0-20.398438 15.199218-32.800781 40.800781-32.800781 25.601562 0 40.800781 12.402343 40.800781 32.800781 0 22.535156-18.265625 40.800781-40.800781 40.800781zm0-69.199219c-22.800781 0-36.800781 10.800781-36.800781 28.800781-1.464844 13.988282 5.175781 27.589844 17.105468 35.039063 11.929688 7.453125 27.0625 7.453125 38.992188 0 11.929687-7.449219 18.566406-21.050781 17.101562-35.039063 0-18.402343-13.597656-28.800781-36.398437-28.800781zm0 0"/><path d="m209.992188 118h-6.800782c-1.101562 0-2-.894531-2-2s.898438-2 2-2h6.800782c1.105468 0 2 .894531 2 2s-.894532 2-2 2zm0 0"/></svg>