<?xml version="1.0" encoding="iso-8859-1"?>
<!-- Generator: Adobe Illustrator 19.0.0, SVG Export Plug-In . SVG Version: 6.00 Build 0)  -->
<svg version="1.1" id="Capa_1" xmlns="http://www.w3.org/2000/svg" xmlns:xlink="http://www.w3.org/1999/xlink" x="0px" y="0px"
	 viewBox="0 0 512 512" style="enable-background:new 0 0 512 512;" xml:space="preserve">
<path style="fill:#AFEAF2;" d="M512,256c0,141.385-114.615,256-256,256S0,397.385,0,256S114.615,0,256,0S512,114.615,512,256z"/>
<path style="fill:#D5F3F7;" d="M335,80H195c-8.284,0-15-6.716-15-15s6.716-15,15-15h105c5.523,0,10-4.477,10-10s-4.477-10-10-10h-25
	c-8.284,0-15-6.716-15-15c0-7.017,4.825-12.892,11.334-14.53C309.121,2.703,344.699,13.128,376.323,30H330c-5.523,0-10,4.477-10,10
	s4.477,10,10,10h5c8.284,0,15,6.716,15,15S343.284,80,335,80z M135,150H22.916c-4.415,9.692-8.248,19.706-11.444,30H135
	c8.284,0,15-6.716,15-15S143.284,150,135,150z M410,115c0-8.284-6.716-15-15-15H265c-8.284,0-15,6.716-15,15s6.716,15,15,15h130
	C403.284,130,410,123.284,410,115z M395,260c-8.284,0-15,6.716-15,15s6.716,15,15,15h114.748c1.305-9.834,2.046-19.846,2.201-30H395
	z"/>
<path style="fill:#D0C731;" d="M170,295c0,30.376-24.624,55-55,55c-9.016,0-44.995,45.061-71.173,49.286
	c-19.892-29.397-33.822-63.152-40.087-99.531C12.618,293.61,23.385,290,35,290c9.016,0,17.517,2.183,25.026,6.029
	C60.02,295.685,60,295.345,60,295c0-30.376,24.624-55,55-55S170,264.624,170,295z"/>
<path style="fill:#968F0F;" d="M507.983,301.415c-9.195,51.359-33.719,97.396-68.653,133.238c-0.493-3.002-0.78-5.834-0.837-8.432
	c-4.832,1.22-9.905,1.815-15.133,1.659c-30.362-0.906-54.241-26.253-53.336-56.615c0.906-30.362,26.253-54.241,56.615-53.336
	c8.478,0.253,16.448,2.415,23.516,6.056c10.228-14.944,27.604-24.54,47.049-23.96C500.906,300.135,504.508,300.613,507.983,301.415z
	"/>
<path style="fill:#945B44;" d="M405,230v170h-30V230H405z M105.791,350h30V210h-30V350z"/>
<path style="fill:#D0C731;" d="M490,212.632L490,212.632c0,26.16-21.208,47.368-47.368,47.368H337.368
	C311.208,260,290,238.792,290,212.632l0,0c0-17.103,9.066-32.085,22.652-40.412c-1.038-3.899-1.599-7.993-1.599-12.219l0,0
	c0-20.861,13.492-38.56,32.221-44.88c-0.416-2.523-0.642-5.111-0.642-7.752l0,0C342.632,81.208,363.839,60,390,60l0,0
	c26.161,0,47.368,21.208,47.368,47.368l0,0c0,2.641-0.226,5.228-0.642,7.752c18.729,6.32,32.221,24.018,32.221,44.88l0,0
	c0,4.226-0.561,8.32-1.599,12.219C480.934,180.547,490,195.529,490,212.632z"/>
<path style="fill:#BFB617;" d="M358.421,260h-21.053C311.208,260,290,238.792,290,212.632c0-17.103,9.066-32.085,22.652-40.412
	c-1.038-3.899-1.599-7.993-1.599-12.219c0-20.861,13.492-38.56,32.221-44.88c-0.416-2.523-0.642-5.111-0.642-7.752
	C342.632,81.208,363.839,60,390,60c3.62,0,7.139,0.419,10.526,1.189c-21.092,4.788-36.842,23.639-36.842,46.18
	c0,2.641,0.226,5.228,0.642,7.752c-18.729,6.32-32.221,24.018-32.221,44.88c0,4.226,0.561,8.32,1.6,12.219
	c-13.586,8.327-22.652,23.31-22.652,40.412C311.053,238.792,332.26,260,358.421,260z"/>
<path style="fill:#A39C12;" d="M227.157,264.908H14.426c-2.203,0-3.567-2.401-2.439-4.293l58.019-97.305H50.671
	c-1.322,0-2.14-1.44-1.463-2.576l41.337-69.326H74.283c-1.322,0-2.14-1.44-1.463-2.576l46.509-78.001
	c0.661-1.108,2.265-1.108,2.926,0l46.509,78.001c0.677,1.135-0.141,2.576-1.463,2.576h-16.262l41.337,69.326
	c0.677,1.135-0.141,2.576-1.463,2.576h-19.336l58.019,97.305C230.723,262.507,229.36,264.908,227.157,264.908z"/>
<path style="fill:#968F0F;" d="M129.793,155.566c0.128,4.247-3.278,7.731-7.497,7.731l-30.708,0.013L33.57,260.615
	c-1.128,1.893,0.235,4.293,2.438,4.293H14.426c-2.203,0-3.567-2.401-2.439-4.293l58.019-97.305H50.671
	c-1.322,0-2.14-1.44-1.463-2.576l41.336-69.326H74.283c-1.322,0-2.14-1.44-1.463-2.576l46.508-78.001
	c0.661-1.108,2.266-1.108,2.926,0l9.328,15.645l-25.291,42.417c-1.987,3.333,0.414,7.561,4.295,7.561h11.243
	c4.219,0,7.624,3.483,7.497,7.731c-0.123,4.105-3.704,7.269-7.811,7.269H112.1l-29.385,49.283c-1.987,3.333,0.414,7.561,4.295,7.561
	h34.974C126.089,148.297,129.67,151.461,129.793,155.566z"/>
<path style="fill:#FF4343;" d="M430.073,383.348l-172.214,68.989c-1.193,0.478-2.525,0.478-3.719,0L81.927,383.348
	c-2.963-1.187-4.07-4.809-2.278-7.45l172.214-253.707c1.984-2.923,6.29-2.923,8.274,0l172.214,253.707
	C434.143,378.539,433.036,382.161,430.073,383.348z"/>
<path style="fill:#F72C2C;" d="M81.927,383.348c-2.963-1.187-4.07-4.809-2.278-7.45l172.214-253.707c1.984-2.923,6.29-2.923,8.274,0
	l9.255,13.635L106.434,375.898c-1.792,2.641-0.685,6.263,2.278,7.45L81.927,383.348L81.927,383.348z"/>
<path style="fill:#6D4336;" d="M137.957,389.59l113.906-167.808c1.984-2.923,6.29-2.923,8.274,0L374.043,389.59H137.957z"/>
<path style="fill:#BFB617;" d="M471.282,394.569C425.714,465.219,346.323,512,256,512S86.286,465.219,40.718,394.569
	c60.417-30.793,134.805-48.98,215.282-48.98S410.866,363.776,471.282,394.569z"/>
<path style="fill:#AFEAF2;" d="M437.4,436.63C391.043,483.183,326.888,512,256,512s-135.043-28.817-181.4-75.37
	c23.715-0.951,44.491-13.275,57.048-31.666c0.697-1.021,2.2-1.021,2.896,0c13.076,19.152,35.064,31.732,60.004,31.732
	s46.928-12.581,60.004-31.732c0.697-1.021,2.2-1.021,2.896,0c13.076,19.152,35.064,31.732,60.004,31.732
	s46.928-12.581,60.004-31.732c0.697-1.021,2.2-1.021,2.896,0C392.908,423.354,413.685,435.679,437.4,436.63z"/>
<path style="fill:#87E0EC;" d="M108.022,464.92c9.421-5.468,17.503-12.987,23.626-21.956c0.697-1.021,2.2-1.021,2.896,0
	c13.076,19.152,35.064,31.732,60.004,31.732s46.928-12.581,60.004-31.732c0.697-1.021,2.2-1.021,2.896,0
	c13.076,19.152,35.064,31.732,60.004,31.732s46.928-12.581,60.004-31.732c0.697-1.021,2.2-1.021,2.896,0
	c6.123,8.969,14.205,16.488,23.626,21.956C362.195,494.569,311.134,512,256,512S149.805,494.569,108.022,464.92z"/>
<path style="fill:#A39C12;" d="M272.005,363.14c-14.337,0.965-28.479,2.338-42.404,4.083c0.255,0.883,0.399,1.813,0.399,2.778
	c0,5.523-4.477,10-10,10h-10c-5.001,0-9.133-3.676-9.871-8.47c-52.957,8.865-102.223,23.253-145.983,41.923
	c-4.75-6.081-9.233-12.38-13.428-18.884c60.417-30.793,134.805-48.98,215.282-48.98c50.346,0,98.308,7.118,141.958,19.987
	C357.841,361.186,315.552,360.209,272.005,363.14z M330,390h-10c-5.523,0-10,4.477-10,10s4.477,10,10,10h10c5.523,0,10-4.477,10-10
	S335.523,390,330,390z"/>
<path style="fill:#BFB617;" d="M361.011,367.824l-18.199,1.481l-14.959,10.339c-1.087,0.751-2.59,0.261-3.025-0.986L310.12,336.5
	c-0.669-1.917,1.615-3.496,3.172-2.193l20.832,17.436l-1.914-65.646c-0.067-2.301,3.167-2.875,3.896-0.692l26.641,79.792
	C363.157,366.428,362.305,367.719,361.011,367.824z"/>
<g>
</g>
<g>
</g>
<g>
</g>
<g>
</g>
<g>
</g>
<g>
</g>
<g>
</g>
<g>
</g>
<g>
</g>
<g>
</g>
<g>
</g>
<g>
</g>
<g>
</g>
<g>
</g>
<g>
</g>
</svg>
